HIERARCHY
ROOT Hips
{
	OFFSET 0.000000 0.000000 0.000000 
	CHANNELS 6 Xposition Yposition Zposition Yrotation Zrotation Xrotation 
	JOINT Lumbar
	{
		OFFSET 0.000000 0.000000 0.000000 
		CHANNELS 3 Zrotation Xrotation Yrotation
		JOINT Neck
		{
			OFFSET 0.000000 0.445665 0.000000 
			CHANNELS 3 Zrotation Xrotation Yrotation
			End Site
			{
				OFFSET 0.000000 0.227535 0.000000 
			}
		}
		JOINT RightShoulder
		{
			OFFSET 0.019635 0.377685 0.194865 
			CHANNELS 3 Zrotation Xrotation Yrotation
			JOINT RightElbow
			{
				OFFSET 0.000000 -0.243375 0.000000 
				CHANNELS 2 Zrotation Yrotation
				JOINT RightWrist
				{
					OFFSET 0.000000 -0.264825 0.000000 
					CHANNELS 2 Zrotation Xrotation
					End Site
					{
						OFFSET 0.006600 -0.176220 0.000990 
					}
				}
			}
		}
		JOINT LeftShoulder
		{
			OFFSET 0.019635 0.377685 -0.194865 
			CHANNELS 3 Zrotation Xrotation Yrotation
			JOINT LeftElbow
			{
				OFFSET 0.000000 -0.243375 0.000000 
				CHANNELS 2 Zrotation Yrotation
				JOINT LeftWrist
				{
					OFFSET 0.000000 -0.264825 0.000000 
					CHANNELS 2 Zrotation Xrotation
					End Site
					{
						OFFSET 0.006600 -0.176220 -0.000990 
					}
				}
			}
		}
	}
	JOINT RightHip
	{
		OFFSET 0.052140 -0.069960 0.075570 
		CHANNELS 3 Zrotation Xrotation Yrotation
		JOINT RightKnee
		{
			OFFSET 0.000000 -0.402270 0.000000 
			CHANNELS 1 Zrotation
			JOINT RightAnkle
			{
				OFFSET 0.000000 -0.404085 0.000000 
				CHANNELS 3 Zrotation Xrotation Yrotation
				End Site
				{
					OFFSET 0.204105 -0.089430 0.008415 
				}
			}
		}
	}
	JOINT LeftHip
	{
		OFFSET 0.052140 -0.069960 -0.075570 
		CHANNELS 3 Zrotation Xrotation Yrotation
		JOINT LeftKnee
		{
			OFFSET 0.000000 -0.402270 0.000000 
			CHANNELS 1 Zrotation
			JOINT LeftAnkle
			{
				OFFSET 0.000000 -0.404085 0.000000 
				CHANNELS 3 Zrotation Xrotation Yrotation
				End Site
				{
					OFFSET 0.204105 -0.089430 -0.008415 
				}
			}
		}
	}
}
MOTION
Frames: 28
Frame Time: 0.02
-0.88241 -0.02933 0.11228 -222.44731 -80.41249 -35.72201 -4.75718 3.21962 2.07406 20.37461 -20.65616 -2.1198 91.09433 4.37874 35.25842 10.40437 67.77602 -3.88458 -0.23669 81.05998 -0.20413 -35.69209 18.71433 -82.83895 -0.97017 4.13119 93.28411 -11.39123 2.59298 -34.25524 -6.58191 -2.53767 -3.46674 111.15954 8.3619 16.67045 -50.93924 -7.06799 0.58199 2.55471
-0.88185 -0.02916 0.11089 -220.43929 -79.74013 -33.70629 -4.23057 2.97553 2.13194 20.39426 -20.46875 -2.1198 89.4625 3.67299 36.03808 11.74204 68.87859 -3.57876 -0.3581 79.44592 0.06031 -35.87758 19.67445 -82.87747 -0.75056 4.32149 92.3568 -11.31558 2.06902 -34.00779 -6.58029 -2.49213 -3.44354 110.41902 7.89916 15.16912 -50.77603 -7.00653 0.70761 2.61482
-0.88136 -0.02908 0.10955 -219.60907 -79.07675 -32.83395 -3.59546 2.72011 2.22813 20.36911 -20.28529 -2.1198 87.79906 2.90739 37.04669 13.24962 70.46702 -3.28202 -0.49125 77.83781 0.36268 -36.12545 20.66717 -82.82852 -0.57911 4.49424 91.47673 -11.33089 1.18989 -33.68238 -6.57494 -2.41047 -3.40206 109.77268 7.31732 13.36521 -50.59927 -6.93133 0.86366 2.68963
-0.88087 -0.02896 0.10819 -218.22179 -78.40263 -31.42282 -3.01233 2.47325 2.30479 20.36216 -20.09718 -2.11981 86.14331 2.16604 37.92868 14.69212 71.81281 -2.97368 -0.61698 76.22585 0.65469 -36.34939 21.64866 -82.8159 -0.37425 4.67873 90.56315 -11.30476 0.47031 -33.39227 -6.57176 -2.3449 -3.36882 109.06752 6.80986 11.74437 -50.42857 -6.86414 1.00191 2.75571
-0.88025 -0.02887 0.10682 -216.90873 -77.75254 -30.07453 -2.42266 2.21192 2.39118 20.36385 -19.92013 -2.11981 84.51436 1.4348 38.89404 16.09022 73.25267 -2.69448 -0.74853 74.61717 0.91738 -36.55717 22.61554 -82.81183 -0.21291 4.84904 89.69718 -11.27958 -0.23864 -33.10732 -6.56645 -2.28091 -3.33594 108.42487 6.21735 9.93358 -50.26059 -6.78941 1.15684 2.83038
-0.87992 -0.02872 0.10547 -215.72972 -77.05592 -28.87589 -1.81836 1.97788 2.46612 20.33729 -19.72085 -2.11982 82.82223 0.66878 39.74571 17.6185 74.61025 -2.35927 -0.87099 73.00462 1.25045 -36.81489 23.62041 -82.77127 0.02411 5.04341 88.74395 -11.27327 -1.05307 -32.79069 -6.56479 -2.20518 -3.29805 107.67589 5.77305 8.44491 -50.08248 -6.72713 1.28434 2.89071
-0.88032 -0.0284 0.10415 -214.60789 -76.23054 -27.78644 -1.20855 1.82443 2.4996 20.24082 -19.46555 -2.11982 80.96842 -0.17333 40.21496 19.46445 75.63418 -1.84708 -0.97683 71.36843 1.76647 -37.16527 24.72227 -82.65326 0.50138 5.31649 87.54485 -11.3035 -2.09637 -32.41328 -6.57357 -2.10334 -3.24949 106.61563 5.77339 7.93011 -49.88383 -6.70301 1.32783 2.90727
-0.88102 -0.028 0.10284 -213.58735 -75.35819 -26.81522 -0.58569 1.69849 2.52014 20.11782 -19.18672 -2.11982 79.05165 -1.04882 40.56572 21.43423 76.55605 -1.28194 -1.07166 69.7305 2.35259 -37.56855 25.86141 -82.50198 1.0525 5.61269 86.25545 -11.34812 -3.22871 -32.0046 -6.58629 -1.99144 -3.19676 105.44468 5.92606 7.74832 -49.67427 -6.69185 1.34274 2.90899
-0.88161 -0.02763 0.10153 -212.53865 -74.50679 -25.80765 0.03729 1.55828 2.54685 20.00911 -18.91482 -2.11982 77.16041 -1.91233 40.98046 23.34698 77.51648 -0.75441 -1.16455 68.10076 2.90775 -37.96661 26.98305 -82.36567 1.55644 5.89299 85.00378 -11.38206 -4.30623 -31.60482 -6.59756 -1.8856 -3.14669 104.32201 6.00462 7.40639 -49.46694 -6.67445 1.37135 2.91794
-0.88207 -0.02729 0.10021 -211.45448 -73.65765 -24.76506 0.63865 1.42482 2.5739 19.89021 -18.65921 -2.11982 75.28019 -2.76516 41.36032 25.27055 78.52716 -0.17036 -1.28676 66.43935 3.45971 -38.28775 28.10716 -82.22716 2.11578 6.19573 83.7683 -11.43761 -5.46084 -31.22524 -6.60722 -1.77181 -3.09257 103.21206 6.09872 7.0889 -49.27134 -6.65796 1.39827 2.92544
-0.88287 -0.02687 0.0989 -210.45397 -72.79212 -23.81019 1.28648 1.2844 2.59643 19.78582 -18.36369 -2.11983 73.36354 -3.64654 41.78161 27.19675 79.40229 0.30911 -1.34558 64.84421 4.03543 -38.78048 29.23585 -82.08607 2.57846 6.45715 82.47624 -11.44917 -6.46619 -30.79664 -6.62127 -1.67318 -3.04638 102.04689 6.19932 6.80629 -49.04807 -6.64292 1.42122 2.9321
-0.88446 -0.02628 0.09763 -209.64636 -71.8963 -23.05095 2.06076 1.11458 2.61152 19.73694 -17.96689 -2.11983 71.35315 -4.60534 42.34609 29.11612 79.92882 0.48284 -1.22861 63.4263 4.65114 -39.73619 30.35667 -81.95013 2.75118 6.60139 81.05654 -11.34599 -7.08279 -30.24527 -6.64627 -1.61448 -3.02113 100.76616 6.2715 6.51665 -48.75791 -6.62796 1.44254 2.94116
-0.88638 -0.02561 0.09636 -208.91604 -70.98471 -22.37358 2.88014 0.93755 2.62196 19.70218 -17.53025 -2.11983 69.3101 -5.59005 42.95482 31.03004 80.32021 0.55018 -1.04907 62.07655 5.28965 -40.86159 31.48271 -81.81237 2.82515 6.70291 79.58139 -11.19594 -7.53727 -29.64538 -6.67564 -1.57225 -3.0044 99.43109 6.34733 6.2564 -48.43905 -6.61422 1.46023 2.94959
-0.88817 -0.02496 0.09509 -208.15321 -70.07833 -21.66449 3.67803 0.76603 2.63312 19.65529 -17.10962 -2.11983 67.28766 -6.55834 43.54288 32.93485 80.7701 0.66902 -0.90011 60.69933 5.9232 -41.90817 32.61375 -81.67324 2.94793 6.82236 78.12733 -11.05981 -8.03282 -29.06448 -6.70316 -1.52572 -2.98524 98.11433 6.42791 5.99834 -48.12889 -6.60047 1.47792 2.9575
-0.88988 -0.02436 0.09383 -207.38374 -69.17953 -20.93676 4.48246 0.58578 2.64976 19.63144 -16.69656 -2.11983 65.23833 -7.54794 44.13117 34.89271 81.22767 0.77681 -0.74075 59.30618 6.53675 -42.96567 33.71529 -81.54238 3.05701 6.94873 76.6882 -10.95426 -8.66373 -28.4942 -6.73017 -1.46593 -2.9601 96.82187 6.48627 5.68533 -47.83671 -6.58486 1.50166 2.96835
-0.89183 -0.02365 0.09255 -206.64486 -68.26064 -20.26603 5.28153 0.42198 2.65403 19.56345 -16.25918 -2.11984 63.2385 -8.49823 44.72869 36.73753 81.64014 0.88114 -0.58952 57.96375 7.19604 -44.03772 34.87864 -81.39407 3.16976 7.05043 75.20512 -10.7751 -8.98008 -27.89215 -6.75932 -1.4371 -2.94917 95.46591 6.5903 5.49037 -47.50039 -6.57324 1.51221 2.97307
-0.89438 -0.02268 0.09123 -205.97078 -67.30093 -19.72716 6.07431 0.30215 2.6253 19.36884 -15.75932 -2.11984 61.38046 -9.33857 45.35991 38.26767 81.94427 1.00616 -0.46574 56.73364 7.97901 -45.12762 36.21425 -81.19878 3.32068 7.09249 73.6232 -10.39214 -8.4049 -27.20316 -6.79256 -1.49613 -2.97828 93.96119 6.81454 5.60477 -47.04977 -6.5722 1.48828 2.96151
-0.89716 -0.02161 0.0899 -205.32456 -66.32018 -19.24322 6.85665 0.19949 2.5843 19.12964 -15.23754 -2.11984 59.57438 -10.13726 45.99525 39.68451 82.21002 1.13029 -0.35409 55.55457 8.80623 -46.2222 37.61106 -80.98505 3.47777 7.11125 71.99877 -9.93904 -7.52949 -26.48697 -6.8279 -1.58467 -3.02089 92.39318 7.08446 5.83661 -46.5559 -6.57507 1.4512 2.94382
-0.89984 -0.02059 0.08857 -204.66512 -65.34169 -18.73691 7.63063 0.09102 2.54901 18.91187 -14.72912 -2.11984 57.74657 -10.95171 46.61763 41.15489 82.50651 1.25183 -0.2439 54.35901 9.61097 -47.30209 38.97789 -80.78068 3.62898 7.14214 70.38708 -9.52566 -6.83268 -25.78952 -6.86282 -1.65552 -3.05542 90.84509 7.33644 6.0198 -46.08125 -6.57621 1.4195 2.92866
-0.90254 -0.01954 0.08725 -204.00983 -64.39172 -18.22222 8.46063 -0.02575 2.51317 18.68981 -14.20451 -2.11984 55.90907 -11.78083 47.29096 42.61576 82.74735 1.38241 -0.10282 53.13632 10.42688 -48.442 40.35443 -80.57609 3.78918 7.16591 68.79696 -9.07687 -5.95417 -25.05979 -6.89579 -1.74483 -3.09838 89.32954 7.57812 6.18618 -45.60653 -6.5773 1.38991 2.91443
-0.90523 -0.01853 0.0859 -203.35273 -63.37972 -17.7374 9.17196 -0.12152 2.47539 18.46571 -13.70951 -2.11985 54.10519 -12.56868 47.85522 44.07055 83.09013 1.4952 -0.02886 51.98285 11.2293 -49.45453 41.72473 -80.36258 3.93415 7.19844 67.15782 -8.6866 -5.38254 -24.39603 -6.93305 -1.80271 -3.12697 87.73544 7.85032 6.41267 -45.1232 -6.57928 1.35316 2.89696
-0.90785 -0.01764 0.08442 -202.67297 -62.18322 -17.31742 9.54854 -0.15934 2.43713 18.24834 -13.29703 -2.11985 52.37693 -13.25572 48.14617 45.52642 83.78251 1.56012 -0.14544 50.99516 11.98703 -50.12345 43.06637 -80.175 4.02893 7.2705 65.34896 -8.46811 -5.75264 -23.88224 -6.98344 -1.76461 -3.11179 85.91024 8.2103 6.79622 -44.61713 -6.58375 1.29732 2.87088
-0.91044 -0.01679 0.0829 -201.99221 -60.92857 -16.92609 9.80755 -0.17732 2.39698 18.02989 -12.91617 -2.11985 50.68232 -13.90134 48.32174 46.98103 84.56919 1.60722 -0.3279 50.07743 12.72885 -50.66121 44.39867 -79.97251 4.1095 7.35069 63.50091 -8.31233 -6.4385 -23.44317 -7.03771 -1.69418 -3.08181 84.0141 8.59676 7.23243 -44.10582 -6.5888 1.23523 2.84197
-0.91302 -0.01594 0.0814 -201.31846 -59.71263 -16.52386 10.12659 -0.20708 2.35656 17.81123 -12.52409 -2.11985 48.97468 -14.56461 48.53083 48.44384 85.27401 1.66267 -0.47522 49.13581 13.47569 -51.25231 45.73318 -79.7441 4.20191 7.42093 61.70036 -8.13279 -6.9674 -22.99577 -7.08899 -1.63972 -3.05906 82.17011 8.96132 7.63124 -43.60333 -6.59291 1.17769 2.81515
-0.91573 -0.015 0.07988 -200.61748 -58.44394 -16.1142 10.41779 -0.22468 2.32066 17.59494 -12.11799 -2.11985 47.25681 -15.23394 48.8194 49.8742 86.13933 1.7181 -0.64507 48.16272 14.23364 -51.87097 47.0794 -79.64481 4.27335 7.51634 59.77274 -7.93125 -7.54408 -22.43966 -7.14552 -1.58079 -3.03457 80.23946 9.36868 8.09063 -43.07216 -6.59995 1.11246 2.78475
-0.91814 -0.01426 0.07841 -199.97329 -57.27176 -15.72667 10.73874 -0.26298 2.27482 17.37284 -11.74881 -2.11985 45.57066 -15.87818 48.91565 51.36865 86.69673 1.76794 -0.78326 47.27104 14.96382 -52.39993 48.39697 -79.28365 4.38301 7.56204 58.10129 -7.7907 -8.09825 -22.12748 -7.19202 -1.52326 -3.0101 78.47371 9.69316 8.43532 -42.60001 -6.60105 1.06192 2.76118
-0.91972 -0.01405 0.07713 -199.48021 -56.37939 -15.38792 11.17431 -0.36461 2.20408 17.1454 -11.47471 -2.11985 43.93758 -16.48962 48.50224 53.08001 86.35097 1.81959 -0.82009 46.58768 15.62305 -52.72182 49.64769 -78.1137 4.61934 7.46454 57.14575 -7.80928 -8.53016 -22.47616 -7.20971 -1.47606 -2.98861 77.17811 9.77687 8.44486 -42.29265 -6.58499 1.05376 2.75735
-0.921 -0.01403 0.07591 -199.0453 -55.58668 -15.07114 11.64323 -0.4876 2.12312 16.9104 -11.23661 -2.11985 42.34014 -17.07197 47.90009 54.84834 85.69767 1.86436 -0.82257 45.98356 16.25411 -52.95621 50.86744 -76.69727 4.89139 7.31747 56.45002 -7.88619 -8.92628 -23.06669 -7.21715 -1.43158 -2.96775 76.05198 9.77688 8.33732 -42.04484 -6.56304 1.06062 2.76049
